HIERARCHY
ROOT Hips
{
    OFFSET 0.000000 0.000000 0.000000
    CHANNELS 6 Xposition Yposition Zposition Zrotation Xrotation Yrotation
    JOINT Spine
    {
        OFFSET -0.000000 7.925200 0.000000
        CHANNELS 3 Zrotation Xrotation Yrotation
        JOINT Spine1
        {
            OFFSET -0.000000 23.364719 0.000000
            CHANNELS 3 Zrotation Xrotation Yrotation
            JOINT Neck
            {
                OFFSET -0.000000 23.268766 2.115342
                CHANNELS 3 Zrotation Xrotation Yrotation
                JOINT Head
                {
                    OFFSET -0.000000 13.530829 -1.932976
                    CHANNELS 3 Zrotation Xrotation Yrotation
                    End Site
                    {
                        OFFSET -0.000000 24.162195 0.000000
                    }
                }
            }
            JOINT LeftShoulder
            {
                OFFSET 3.858291 22.792089 -0.033814
                CHANNELS 3 Zrotation Xrotation Yrotation
                JOINT LeftArm
                {
                    OFFSET 7.057024 0.000000 0.000000
                    CHANNELS 3 Zrotation Xrotation Yrotation
                    JOINT LeftForeArm
                    {
                        OFFSET 34.734173 0.000000 0.000000
                        CHANNELS 3 Zrotation Xrotation Yrotation
                        JOINT LeftHand
                        {
                            OFFSET 23.943203 0.000000 0.000000
                            CHANNELS 3 Zrotation Xrotation Yrotation
                            End Site
                            {
                                OFFSET 14.497317 0.000000 0.000000
                            }
                        }
                    }
                }
            }
            JOINT RightShoulder
            {
                OFFSET -3.868823 22.792089 -0.033814
                CHANNELS 3 Zrotation Xrotation Yrotation
                JOINT RightArm
                {
                    OFFSET -7.057024 0.000000 0.000000
                    CHANNELS 3 Zrotation Xrotation Yrotation
                    JOINT RightForeArm
                    {
                        OFFSET -34.734173 0.000000 0.000000
                        CHANNELS 3 Zrotation Xrotation Yrotation
                        JOINT RightHand
                        {
                            OFFSET -23.943203 0.000000 0.000000
                            CHANNELS 3 Zrotation Xrotation Yrotation
                            End Site
                            {
                                OFFSET -14.497317 0.000000 0.000000
                            }
                        }
                    }
                }
            }
        }
    }
    JOINT LeftUpLeg
    {
        OFFSET 9.664878 0.000000 0.000000
        CHANNELS 3 Zrotation Xrotation Yrotation
        JOINT LeftLeg
        {
            OFFSET -0.000000 -38.728706 0.000000
            CHANNELS 3 Zrotation Xrotation Yrotation
            JOINT LeftFoot
            {
                OFFSET -0.000000 -40.242161 0.000000
                CHANNELS 3 Zrotation Xrotation Yrotation
                JOINT LeftToeBase
                {
                    OFFSET -0.000000 -6.282171 14.497317
                    CHANNELS 3 Zrotation Xrotation Yrotation
                    End Site
                    {
                        OFFSET -0.000000 0.000000 3.865951
                    }
                }
            }
        }
    }
    JOINT RightUpLeg
    {
        OFFSET -9.664878 0.000000 0.000000
        CHANNELS 3 Zrotation Xrotation Yrotation
        JOINT RightLeg
        {
            OFFSET -0.000000 -38.728706 0.000000
            CHANNELS 3 Zrotation Xrotation Yrotation
            JOINT RightFoot
            {
                OFFSET -0.000000 -40.242161 0.000000
                CHANNELS 3 Zrotation Xrotation Yrotation
                JOINT RightToeBase
                {
                    OFFSET -0.000000 -6.282171 14.497317
                    CHANNELS 3 Zrotation Xrotation Yrotation
                    End Site
                    {
                        OFFSET -0.000000 0.000000 3.865951
                    }
                }
            }
        }
    }
}
MOTION
Frames:    9
Frame Time:    0.008333
-192.870117    89.277565    35.147079    -2.612725    -1.433843    86.985863    1.815464    -4.376683    -0.650524    -1.471266    1.026426    -0.706733    -2.084740    19.278442    7.480037    -0.924654    -6.622180    7.539043    12.722604    -0.810746    3.291873    -15.288269    11.846707    -6.125896    3.193765    5.144345    -2.241489    3.439723    5.102561    -3.477656    -13.876904    -0.126659    5.732125    16.833899    6.161169    9.395664    -1.381522    3.309297    -0.485523    0.953723    3.284282    -2.308114    1.011524    1.599669    4.213398    -2.730201    0.985119    -3.007667    4.020356    -4.596089    8.377058    0.000000    0.000000    0.000000    4.479469    -1.739599    -1.476851    -1.784107    6.316869    4.521405    -2.417096    -5.365178    -14.471126    0.000000    0.000000    0.000000    
-192.867462    89.277878    35.150574    -2.610341    -1.432570    86.981827    1.816528    -4.379152    -0.649902    -1.477491    1.038486    -0.706038    -2.090913    19.268124    7.481875    -0.916310    -6.611277    7.542728    12.733712    -0.822176    3.306679    -15.295822    11.868545    -6.141640    3.196099    5.150180    -2.217265    3.439796    5.107445    -3.488337    -13.874685    -0.111409    5.746688    16.830677    6.148484    9.387620    -1.376959    3.280195    -0.475372    0.931955    3.255669    -2.318558    1.015013    1.609466    4.210757    -2.734838    0.978637    -3.033092    4.028941    -4.591327    8.399425    0.000000    0.000000    0.000000    4.484203    -1.731476    -1.469058    -1.789996    6.310273    4.513556    -2.403736    -5.362491    -14.464848    0.000000    0.000000    0.000000    
-192.861862    89.278358    35.150307    -2.607258    -1.431109    86.999901    1.812464    -4.367432    -0.653228    -1.477454    1.017349    -0.709193    -2.050688    19.299564    7.479636    -0.961225    -6.638321    7.531835    12.724270    -0.805086    3.289786    -15.287811    11.853897    -6.147956    3.183166    5.147706    -2.207650    3.462114    5.103805    -3.486932    -13.872016    -0.135698    5.720068    16.839237    6.197501    9.393480    -1.390821    3.269196    -0.476415    0.966363    3.244056    -2.300860    1.010139    1.616844    4.182667    -2.729548    0.971032    -3.010503    4.021446    -4.582041    8.389193    0.000000    0.000000    0.000000    4.478634    -1.717749    -1.479856    -1.785557    6.295597    4.528317    -2.397642    -5.361220    -14.485024    0.000000    0.000000    0.000000    
-192.861526    89.279243    35.153130    -2.613061    -1.434535    87.003868    1.812567    -4.369689    -0.652375    -1.477102    1.019095    -0.708365    -2.034311    19.276640    7.478516    -0.977703    -6.601305    7.528642    12.733692    -0.822936    3.292799    -15.299343    11.850852    -6.156969    3.188196    5.157562    -2.196168    3.427244    5.114661    -3.481884    -13.851851    -0.120447    5.711631    16.818579    6.158789    9.402512    -1.379120    3.270656    -0.479214    0.949933    3.245777    -2.310200    1.019317    1.608971    4.194286    -2.733649    0.973951    -3.016467    4.008728    -4.586617    8.377368    0.000000    0.000000    0.000000    4.483076    -1.723942    -1.450393    -1.778745    6.300838    4.494896    -2.457863    -5.332787    -14.521239    0.000000    0.000000    0.000000    
-192.860336    89.278549    35.154961    -2.622352    -1.437518    86.998070    1.831823    -4.372834    -0.662691    -1.495533    1.004717    -0.719518    -2.058240    19.325672    7.499369    -0.972488    -6.667881    7.549129    12.724861    -0.831776    3.314174    -15.297585    11.841928    -6.144392    3.183678    5.165303    -2.199810    3.429004    5.122315    -3.483238    -13.870193    -0.118619    5.762728    16.848440    6.177577    9.392428    -1.389261    3.259377    -0.494486    0.933669    3.234608    -2.307857    1.026256    1.602887    4.186898    -2.738983    0.971117    -3.026865    4.032969    -4.583866    8.398368    0.000000    0.000000    0.000000    4.493277    -1.736179    -1.462304    -1.786469    6.304840    4.473205    -2.420406    -5.363093    -14.457057    0.000000    0.000000    0.000000    
-192.858047    89.279053    35.156841    -2.625150    -1.434639    87.005272    1.823370    -4.382111    -0.659452    -1.494193    1.021289    -0.715906    -2.066847    19.271790    7.470409    -0.932629    -6.590794    7.528340    12.736888    -0.818870    3.291224    -15.304563    11.833437    -6.144295    3.165106    5.165174    -2.193814    3.464348    5.120890    -3.473720    -13.857747    -0.127941    5.713221    16.835093    6.172997    9.432935    -1.378391    3.292375    -0.504607    0.924437    3.267629    -2.319165    1.021394    1.598511    4.189748    -2.734417    0.972708    -3.005358    4.015118    -4.588637    8.375269    0.000000    0.000000    0.000000    4.487791    -1.733674    -1.435909    -1.780534    6.306321    4.502612    -2.432827    -5.362501    -14.512788    0.000000    0.000000    0.000000    
-192.855988    89.279419    35.157059    -2.628746    -1.428246    87.005257    1.814314    -4.385986    -0.662953    -1.486039    1.024330    -0.719169    -2.068509    19.314938    7.484484    -0.954859    -6.657259    7.537103    12.729697    -0.832261    3.305250    -15.311689    11.820744    -6.151500    3.171270    5.179696    -2.192713    3.436002    5.136561    -3.466605    -13.863425    -0.108406    5.731929    16.830006    6.190170    9.430391    -1.378206    3.290717    -0.506972    0.891515    3.266610    -2.320636    1.015902    1.597546    4.183225    -2.737038    0.971223    -3.012928    4.011237    -4.587704    8.389704    0.000000    0.000000    0.000000    4.485580    -1.738145    -1.469990    -1.789585    6.305326    4.503024    -2.425163    -5.363842    -14.475359    0.000000    0.000000    0.000000    
-192.854492    89.279037    35.157955    -2.632339    -1.429581    86.997368    1.826065    -4.401845    -0.658301    -1.505934    1.054819    -0.714674    -2.078033    19.261980    7.478976    -0.923499    -6.598643    7.538836    12.738997    -0.840884    3.322755    -15.307364    11.829753    -6.163101    3.053333    5.025235    -2.294717    4.043738    4.974511    -3.174018    -13.875168    -0.141974    5.737401    16.857595    6.177598    9.419336    -1.365977    3.321838    -0.510250    0.891172    3.297881    -2.305456    1.015399    1.599413    4.186676    -2.727367    0.963916    -3.025202    3.997023    -4.578701    8.406217    0.000000    0.000000    0.000000    4.487608    -1.741874    -1.470824    -1.789124    6.307597    4.519016    -2.430276    -5.367174    -14.488636    0.000000    0.000000    0.000000    
-192.849564    89.279564    35.162563    -2.628015    -1.435838    87.009430    1.819466    -4.393163    -0.657752    -1.496881    1.041286    -0.713944    -2.023719    19.250484    7.469925    -0.989455    -6.546607    7.518625    12.743272    -0.812318    3.282474    -15.326321    11.788231    -6.144341    3.056283    5.038240    -2.303759    4.046169    4.987132    -3.191336    -13.851206    -0.127826    5.721781    16.846628    6.218978    9.415091    -1.399597    3.318655    -0.488110    0.911890    3.294327    -2.312342    1.031640    1.603913    4.173030    -2.744045    0.969954    -3.035486    4.001982    -4.586970    8.415610    0.000000    0.000000    0.000000    4.497360    -1.726869    -1.445767    -1.783685    6.293253    4.475430    -2.438180    -5.359400    -14.487133    0.000000    0.000000    0.000000    
